<mxfile host="app.diagrams.net" modified="2023-08-01T22:24:16.196Z" agent="Mozilla/5.0 (Windows NT 10.0; Win64; x64) AppleWebKit/537.36 (KHTML, like Gecko) Chrome/115.0.0.0 Safari/537.36 Edg/115.0.1901.188" etag="BUWeMIRXqFz-HmpJmpwm" version="21.6.6" type="github">
  <diagram name="Page-1" id="929967ad-93f9-6ef4-fab6-5d389245f69c">
    <mxGraphModel dx="3600" dy="1487" grid="1" gridSize="10" guides="1" tooltips="1" connect="1" arrows="1" fold="1" page="1" pageScale="1.5" pageWidth="1169" pageHeight="826" background="none" math="0" shadow="0">
      <root>
        <mxCell id="0" style=";html=1;" />
        <mxCell id="1" style=";html=1;" parent="0" />
        <mxCell id="BygNE2UErq7dpZcZYX3N-1" value="Boundary Object" style="shape=umlBoundary;whiteSpace=wrap;html=1;fontSize=16;" parent="1" vertex="1">
          <mxGeometry x="510" y="230" width="100" height="80" as="geometry" />
        </mxCell>
        <mxCell id="BygNE2UErq7dpZcZYX3N-2" value="Instructor" style="shape=umlActor;html=1;verticalLabelPosition=bottom;verticalAlign=top;align=center;fontSize=16;" parent="1" vertex="1">
          <mxGeometry x="350" y="220" width="30" height="60" as="geometry" />
        </mxCell>
        <mxCell id="L_0Sts4csoF8o7Koaro3-2" value="&lt;u&gt;Question:Class&lt;/u&gt;" style="rounded=1;whiteSpace=wrap;html=1;" parent="1" vertex="1">
          <mxGeometry x="950.5" y="230" width="120" height="60" as="geometry" />
        </mxCell>
        <mxCell id="L_0Sts4csoF8o7Koaro3-6" value="&lt;u&gt;JSONObject:Class&lt;/u&gt;" style="rounded=1;whiteSpace=wrap;html=1;" parent="1" vertex="1">
          <mxGeometry x="1370.5" y="230" width="120" height="60" as="geometry" />
        </mxCell>
        <mxCell id="L_0Sts4csoF8o7Koaro3-7" value="&lt;u&gt;RetrieveQuestions:Class&lt;/u&gt;" style="rounded=1;whiteSpace=wrap;html=1;" parent="1" vertex="1">
          <mxGeometry x="1150.5" y="230" width="140" height="60" as="geometry" />
        </mxCell>
        <mxCell id="L_0Sts4csoF8o7Koaro3-8" value="Scenario 4: Create Questions" style="text;strokeColor=none;fillColor=none;html=1;fontSize=24;fontStyle=1;verticalAlign=middle;align=center;" parent="1" vertex="1">
          <mxGeometry x="1240.5" y="50" width="570" height="40" as="geometry" />
        </mxCell>
        <mxCell id="L_0Sts4csoF8o7Koaro3-15" value="" style="endArrow=none;dashed=1;html=1;rounded=0;movable=1;resizable=1;rotatable=1;deletable=1;editable=1;locked=0;connectable=1;exitX=0.05;exitY=0.544;exitDx=0;exitDy=0;exitPerimeter=0;entryX=0.5;entryY=1;entryDx=0;entryDy=0;" parent="1" edge="1" target="L_0Sts4csoF8o7Koaro3-2">
          <mxGeometry width="50" height="50" relative="1" as="geometry">
            <mxPoint x="1009.6700000000001" y="1261" as="sourcePoint" />
            <mxPoint x="1009.6700000000001" y="650" as="targetPoint" />
            <Array as="points">
              <mxPoint x="1009.5" y="1400" />
            </Array>
          </mxGeometry>
        </mxCell>
        <mxCell id="L_0Sts4csoF8o7Koaro3-4" value="sd Create Questions" style="shape=umlFrame;whiteSpace=wrap;html=1;pointerEvents=0;width=200;height=20;" parent="1" vertex="1">
          <mxGeometry x="280" y="140" width="2400" height="1290" as="geometry" />
        </mxCell>
        <mxCell id="L_0Sts4csoF8o7Koaro3-31" value="Create Question Selected" style="html=1;verticalAlign=bottom;endArrow=block;edgeStyle=elbowEdgeStyle;elbow=horizontal;curved=0;rounded=0;" parent="1" edge="1">
          <mxGeometry width="80" relative="1" as="geometry">
            <mxPoint x="365" y="780" as="sourcePoint" />
            <mxPoint x="570" y="780" as="targetPoint" />
          </mxGeometry>
        </mxCell>
        <mxCell id="4zJbVAAGOXzPrP1AxdIP-1" value="" style="endArrow=none;dashed=1;html=1;rounded=0;movable=1;resizable=1;rotatable=1;deletable=1;editable=1;locked=0;connectable=1;exitX=0.28;exitY=0.967;exitDx=0;exitDy=0;exitPerimeter=0;entryX=0.5;entryY=1;entryDx=0;entryDy=0;" parent="1" edge="1" target="L_0Sts4csoF8o7Koaro3-7">
          <mxGeometry width="50" height="50" relative="1" as="geometry">
            <mxPoint x="1219.97" y="1400" as="sourcePoint" />
            <mxPoint x="1220.5" y="650" as="targetPoint" />
            <Array as="points">
              <mxPoint x="1219.97" y="1380" />
              <mxPoint x="1219.97" y="1370" />
            </Array>
          </mxGeometry>
        </mxCell>
        <mxCell id="4zJbVAAGOXzPrP1AxdIP-2" value="" style="endArrow=none;dashed=1;html=1;rounded=0;movable=1;resizable=1;rotatable=1;deletable=1;editable=1;locked=0;connectable=1;exitX=0.28;exitY=0.967;exitDx=0;exitDy=0;exitPerimeter=0;" parent="1" edge="1">
          <mxGeometry width="50" height="50" relative="1" as="geometry">
            <mxPoint x="570" y="1400" as="sourcePoint" />
            <mxPoint x="571" y="310" as="targetPoint" />
            <Array as="points">
              <mxPoint x="570" y="1380" />
              <mxPoint x="570" y="1370" />
            </Array>
          </mxGeometry>
        </mxCell>
        <mxCell id="4zJbVAAGOXzPrP1AxdIP-3" value="" style="endArrow=none;dashed=1;html=1;rounded=0;movable=1;resizable=1;rotatable=1;deletable=1;editable=1;locked=0;connectable=1;exitX=0.28;exitY=0.967;exitDx=0;exitDy=0;exitPerimeter=0;entryX=0.5;entryY=1;entryDx=0;entryDy=0;" parent="1" edge="1" target="L_0Sts4csoF8o7Koaro3-6">
          <mxGeometry width="50" height="50" relative="1" as="geometry">
            <mxPoint x="1429.97" y="1400" as="sourcePoint" />
            <mxPoint x="1430.5" y="650" as="targetPoint" />
            <Array as="points">
              <mxPoint x="1429.97" y="1380" />
              <mxPoint x="1429.97" y="1370" />
            </Array>
          </mxGeometry>
        </mxCell>
        <mxCell id="4zJbVAAGOXzPrP1AxdIP-4" value="" style="endArrow=none;dashed=1;html=1;rounded=0;movable=1;resizable=1;rotatable=1;deletable=1;editable=1;locked=0;connectable=1;exitX=0.28;exitY=0.967;exitDx=0;exitDy=0;exitPerimeter=0;" parent="1" edge="1">
          <mxGeometry width="50" height="50" relative="1" as="geometry">
            <mxPoint x="360" y="1400" as="sourcePoint" />
            <mxPoint x="361" y="310" as="targetPoint" />
            <Array as="points">
              <mxPoint x="360" y="1380" />
              <mxPoint x="360" y="1370" />
            </Array>
          </mxGeometry>
        </mxCell>
        <mxCell id="07FEJgRhnAGQ607lGeJZ-4" value="[Create Question Button Selected]" style="text;html=1;strokeColor=none;fillColor=none;align=center;verticalAlign=middle;whiteSpace=wrap;rounded=0;" vertex="1" parent="1">
          <mxGeometry x="400" y="710" width="140" height="30" as="geometry" />
        </mxCell>
        <mxCell id="07FEJgRhnAGQ607lGeJZ-8" value="Opens Question Editor Page" style="html=1;verticalAlign=bottom;endArrow=block;edgeStyle=elbowEdgeStyle;elbow=horizontal;curved=0;rounded=0;" edge="1" parent="1">
          <mxGeometry width="80" relative="1" as="geometry">
            <mxPoint x="360" y="350" as="sourcePoint" />
            <mxPoint x="570" y="350" as="targetPoint" />
          </mxGeometry>
        </mxCell>
        <mxCell id="07FEJgRhnAGQ607lGeJZ-11" value="retrieveAllClientQuestions()" style="html=1;verticalAlign=bottom;endArrow=block;edgeStyle=elbowEdgeStyle;elbow=horizontal;curved=0;rounded=0;" edge="1" parent="1">
          <mxGeometry width="80" relative="1" as="geometry">
            <mxPoint x="570" y="380" as="sourcePoint" />
            <mxPoint x="1010" y="380" as="targetPoint" />
          </mxGeometry>
        </mxCell>
        <mxCell id="07FEJgRhnAGQ607lGeJZ-13" value="" style="html=1;verticalAlign=bottom;endArrow=open;dashed=1;endSize=8;edgeStyle=elbowEdgeStyle;elbow=horizontal;curved=0;rounded=0;" edge="1" parent="1">
          <mxGeometry relative="1" as="geometry">
            <mxPoint x="1010" y="630" as="sourcePoint" />
            <mxPoint x="570" y="630" as="targetPoint" />
            <Array as="points" />
          </mxGeometry>
        </mxCell>
        <mxCell id="07FEJgRhnAGQ607lGeJZ-35" value="displayQuestions()" style="edgeLabel;html=1;align=center;verticalAlign=middle;resizable=0;points=[];" vertex="1" connectable="0" parent="07FEJgRhnAGQ607lGeJZ-13">
          <mxGeometry x="-0.2106" y="2" relative="1" as="geometry">
            <mxPoint x="-44" y="-22" as="offset" />
          </mxGeometry>
        </mxCell>
        <mxCell id="07FEJgRhnAGQ607lGeJZ-14" value="retrieveAllQuestions()" style="html=1;verticalAlign=bottom;endArrow=block;edgeStyle=elbowEdgeStyle;elbow=horizontal;curved=0;rounded=0;" edge="1" parent="1">
          <mxGeometry width="80" relative="1" as="geometry">
            <mxPoint x="1010.5" y="400" as="sourcePoint" />
            <mxPoint x="1220.5" y="400" as="targetPoint" />
            <mxPoint as="offset" />
          </mxGeometry>
        </mxCell>
        <mxCell id="07FEJgRhnAGQ607lGeJZ-15" value="" style="html=1;verticalAlign=bottom;endArrow=open;dashed=1;endSize=8;edgeStyle=elbowEdgeStyle;elbow=vertical;curved=0;rounded=0;" edge="1" parent="1">
          <mxGeometry relative="1" as="geometry">
            <mxPoint x="1220.5" y="630" as="sourcePoint" />
            <mxPoint x="1010.5" y="630" as="targetPoint" />
            <Array as="points" />
          </mxGeometry>
        </mxCell>
        <mxCell id="07FEJgRhnAGQ607lGeJZ-16" value="new JSONObject()" style="html=1;verticalAlign=bottom;endArrow=block;edgeStyle=elbowEdgeStyle;elbow=horizontal;curved=0;rounded=0;" edge="1" parent="1">
          <mxGeometry width="80" relative="1" as="geometry">
            <mxPoint x="1220.5" y="420" as="sourcePoint" />
            <mxPoint x="1430.5" y="420" as="targetPoint" />
          </mxGeometry>
        </mxCell>
        <mxCell id="07FEJgRhnAGQ607lGeJZ-17" value="" style="html=1;verticalAlign=bottom;endArrow=open;dashed=1;endSize=8;edgeStyle=elbowEdgeStyle;elbow=vertical;curved=0;rounded=0;" edge="1" parent="1">
          <mxGeometry relative="1" as="geometry">
            <mxPoint x="1430.5" y="439.99999999999994" as="sourcePoint" />
            <mxPoint x="1220.5" y="439.99999999999994" as="targetPoint" />
            <Array as="points" />
          </mxGeometry>
        </mxCell>
        <mxCell id="07FEJgRhnAGQ607lGeJZ-18" value="&lt;u&gt;InitializeClient:Class&lt;/u&gt;" style="rounded=1;whiteSpace=wrap;html=1;" vertex="1" parent="1">
          <mxGeometry x="1570.5" y="230" width="150" height="60" as="geometry" />
        </mxCell>
        <mxCell id="07FEJgRhnAGQ607lGeJZ-19" value="" style="endArrow=none;dashed=1;html=1;rounded=0;movable=1;resizable=1;rotatable=1;deletable=1;editable=1;locked=0;connectable=1;exitX=0.28;exitY=0.967;exitDx=0;exitDy=0;exitPerimeter=0;entryX=0.5;entryY=1;entryDx=0;entryDy=0;" edge="1" parent="1" target="07FEJgRhnAGQ607lGeJZ-27">
          <mxGeometry width="50" height="50" relative="1" as="geometry">
            <mxPoint x="1884.8700000000001" y="1390" as="sourcePoint" />
            <mxPoint x="1885.4" y="640" as="targetPoint" />
            <Array as="points">
              <mxPoint x="1884.8700000000001" y="1370" />
              <mxPoint x="1884.8700000000001" y="1360" />
            </Array>
          </mxGeometry>
        </mxCell>
        <mxCell id="07FEJgRhnAGQ607lGeJZ-20" value="sendRequest(apiURL, jsonPayload)" style="html=1;verticalAlign=bottom;endArrow=block;edgeStyle=elbowEdgeStyle;elbow=horizontal;curved=0;rounded=0;" edge="1" parent="1">
          <mxGeometry width="80" relative="1" as="geometry">
            <mxPoint x="1220.5" y="480" as="sourcePoint" />
            <mxPoint x="1640.5" y="480" as="targetPoint" />
          </mxGeometry>
        </mxCell>
        <mxCell id="07FEJgRhnAGQ607lGeJZ-21" value="" style="html=1;verticalAlign=bottom;endArrow=open;dashed=1;endSize=8;edgeStyle=elbowEdgeStyle;elbow=vertical;curved=0;rounded=0;" edge="1" parent="1">
          <mxGeometry relative="1" as="geometry">
            <mxPoint x="2120.5" y="630" as="sourcePoint" />
            <mxPoint x="1890.5" y="630" as="targetPoint" />
            <Array as="points" />
          </mxGeometry>
        </mxCell>
        <mxCell id="07FEJgRhnAGQ607lGeJZ-22" value="&lt;u&gt;CloseableHTTPClient:Class&lt;/u&gt;" style="rounded=1;whiteSpace=wrap;html=1;" vertex="1" parent="1">
          <mxGeometry x="2270.5" y="230" width="160" height="60" as="geometry" />
        </mxCell>
        <mxCell id="07FEJgRhnAGQ607lGeJZ-23" value="" style="endArrow=none;dashed=1;html=1;rounded=0;movable=1;resizable=1;rotatable=1;deletable=1;editable=1;locked=0;connectable=1;exitX=0.28;exitY=0.967;exitDx=0;exitDy=0;exitPerimeter=0;entryX=0.5;entryY=1;entryDx=0;entryDy=0;" edge="1" parent="1" target="07FEJgRhnAGQ607lGeJZ-18">
          <mxGeometry width="50" height="50" relative="1" as="geometry">
            <mxPoint x="1644.91" y="1400" as="sourcePoint" />
            <mxPoint x="1645.44" y="650" as="targetPoint" />
            <Array as="points">
              <mxPoint x="1644.91" y="1380" />
              <mxPoint x="1644.91" y="1370" />
            </Array>
          </mxGeometry>
        </mxCell>
        <mxCell id="07FEJgRhnAGQ607lGeJZ-24" value="getBitsPleaseRequest()" style="html=1;verticalAlign=bottom;endArrow=block;edgeStyle=elbowEdgeStyle;elbow=horizontal;curved=0;rounded=0;" edge="1" parent="1">
          <mxGeometry width="80" relative="1" as="geometry">
            <mxPoint x="1650.5" y="520" as="sourcePoint" />
            <mxPoint x="1880.5" y="520" as="targetPoint" />
          </mxGeometry>
        </mxCell>
        <mxCell id="07FEJgRhnAGQ607lGeJZ-25" value="" style="html=1;verticalAlign=bottom;endArrow=open;dashed=1;endSize=8;edgeStyle=elbowEdgeStyle;elbow=vertical;curved=0;rounded=0;" edge="1" parent="1">
          <mxGeometry relative="1" as="geometry">
            <mxPoint x="1430.5" y="630" as="sourcePoint" />
            <mxPoint x="1220.5" y="630" as="targetPoint" />
            <Array as="points" />
          </mxGeometry>
        </mxCell>
        <mxCell id="07FEJgRhnAGQ607lGeJZ-26" value="" style="endArrow=none;dashed=1;html=1;rounded=0;movable=1;resizable=1;rotatable=1;deletable=1;editable=1;locked=0;connectable=1;exitX=0.28;exitY=0.967;exitDx=0;exitDy=0;exitPerimeter=0;" edge="1" parent="1" target="07FEJgRhnAGQ607lGeJZ-29">
          <mxGeometry width="50" height="50" relative="1" as="geometry">
            <mxPoint x="2124.59" y="1400" as="sourcePoint" />
            <mxPoint x="2125.12" y="650" as="targetPoint" />
            <Array as="points">
              <mxPoint x="2124.59" y="1380" />
              <mxPoint x="2124.59" y="1370" />
            </Array>
          </mxGeometry>
        </mxCell>
        <mxCell id="07FEJgRhnAGQ607lGeJZ-27" value="&lt;u&gt;BitsPleaseRequest:Class&lt;/u&gt;" style="rounded=1;whiteSpace=wrap;html=1;" vertex="1" parent="1">
          <mxGeometry x="1810.5" y="230" width="150" height="60" as="geometry" />
        </mxCell>
        <mxCell id="07FEJgRhnAGQ607lGeJZ-28" value="sendRequest()" style="html=1;verticalAlign=bottom;endArrow=block;edgeStyle=elbowEdgeStyle;elbow=horizontal;curved=0;rounded=0;" edge="1" parent="1">
          <mxGeometry width="80" relative="1" as="geometry">
            <mxPoint x="1890.5" y="540" as="sourcePoint" />
            <mxPoint x="2120.5" y="540" as="targetPoint" />
          </mxGeometry>
        </mxCell>
        <mxCell id="07FEJgRhnAGQ607lGeJZ-29" value="&lt;u&gt;HTTPPost:Class&lt;/u&gt;" style="rounded=1;whiteSpace=wrap;html=1;" vertex="1" parent="1">
          <mxGeometry x="2050" y="230" width="150" height="60" as="geometry" />
        </mxCell>
        <mxCell id="07FEJgRhnAGQ607lGeJZ-30" value="" style="endArrow=none;dashed=1;html=1;rounded=0;movable=1;resizable=1;rotatable=1;deletable=1;editable=1;locked=0;connectable=1;exitX=0.28;exitY=0.967;exitDx=0;exitDy=0;exitPerimeter=0;entryX=0.5;entryY=1;entryDx=0;entryDy=0;" edge="1" parent="1" target="07FEJgRhnAGQ607lGeJZ-22">
          <mxGeometry width="50" height="50" relative="1" as="geometry">
            <mxPoint x="2350.5" y="1400" as="sourcePoint" />
            <mxPoint x="2351.03" y="650" as="targetPoint" />
            <Array as="points">
              <mxPoint x="2350.5" y="1380" />
              <mxPoint x="2350.5" y="1370" />
            </Array>
          </mxGeometry>
        </mxCell>
        <mxCell id="07FEJgRhnAGQ607lGeJZ-31" value="execute()" style="html=1;verticalAlign=bottom;endArrow=block;edgeStyle=elbowEdgeStyle;elbow=vertical;curved=0;rounded=0;" edge="1" parent="1">
          <mxGeometry width="80" relative="1" as="geometry">
            <mxPoint x="2130.5" y="570" as="sourcePoint" />
            <mxPoint x="2350.5" y="570" as="targetPoint" />
          </mxGeometry>
        </mxCell>
        <mxCell id="07FEJgRhnAGQ607lGeJZ-32" value="" style="html=1;verticalAlign=bottom;endArrow=open;dashed=1;endSize=8;edgeStyle=elbowEdgeStyle;elbow=vertical;curved=0;rounded=0;" edge="1" parent="1">
          <mxGeometry relative="1" as="geometry">
            <mxPoint x="2350.5" y="630" as="sourcePoint" />
            <mxPoint x="2130.5" y="630" as="targetPoint" />
            <Array as="points" />
          </mxGeometry>
        </mxCell>
        <mxCell id="07FEJgRhnAGQ607lGeJZ-33" value="" style="html=1;verticalAlign=bottom;endArrow=open;dashed=1;endSize=8;edgeStyle=elbowEdgeStyle;elbow=vertical;curved=0;rounded=0;" edge="1" parent="1">
          <mxGeometry relative="1" as="geometry">
            <mxPoint x="1880.5" y="630" as="sourcePoint" />
            <mxPoint x="1650.5" y="630" as="targetPoint" />
            <Array as="points" />
          </mxGeometry>
        </mxCell>
        <mxCell id="07FEJgRhnAGQ607lGeJZ-34" value="" style="html=1;verticalAlign=bottom;endArrow=open;dashed=1;endSize=8;edgeStyle=elbowEdgeStyle;elbow=vertical;curved=0;rounded=0;" edge="1" parent="1">
          <mxGeometry relative="1" as="geometry">
            <mxPoint x="1640.5" y="630" as="sourcePoint" />
            <mxPoint x="1430.5" y="630" as="targetPoint" />
            <Array as="points" />
          </mxGeometry>
        </mxCell>
        <mxCell id="07FEJgRhnAGQ607lGeJZ-36" value="&lt;u&gt;DefaultTableModel&lt;/u&gt;" style="rounded=1;whiteSpace=wrap;html=1;" vertex="1" parent="1">
          <mxGeometry x="720" y="229" width="120" height="60" as="geometry" />
        </mxCell>
        <mxCell id="07FEJgRhnAGQ607lGeJZ-37" value="" style="endArrow=none;dashed=1;html=1;rounded=0;movable=1;resizable=1;rotatable=1;deletable=1;editable=1;locked=0;connectable=1;exitX=0.05;exitY=0.544;exitDx=0;exitDy=0;exitPerimeter=0;entryX=0.5;entryY=1;entryDx=0;entryDy=0;" edge="1" parent="1" target="07FEJgRhnAGQ607lGeJZ-36">
          <mxGeometry width="50" height="50" relative="1" as="geometry">
            <mxPoint x="779.1700000000001" y="1260" as="sourcePoint" />
            <mxPoint x="779.1700000000001" y="649" as="targetPoint" />
            <Array as="points">
              <mxPoint x="779" y="1399" />
            </Array>
          </mxGeometry>
        </mxCell>
        <mxCell id="07FEJgRhnAGQ607lGeJZ-38" value="Java Library Class" style="text;html=1;strokeColor=none;fillColor=none;align=center;verticalAlign=middle;whiteSpace=wrap;rounded=0;" vertex="1" parent="1">
          <mxGeometry x="720" y="199" width="120" height="30" as="geometry" />
        </mxCell>
        <mxCell id="07FEJgRhnAGQ607lGeJZ-39" value="addRow()" style="html=1;verticalAlign=bottom;endArrow=block;edgeStyle=elbowEdgeStyle;elbow=horizontal;curved=0;rounded=0;" edge="1" parent="1">
          <mxGeometry width="80" relative="1" as="geometry">
            <mxPoint x="580" y="820" as="sourcePoint" />
            <mxPoint x="770" y="820" as="targetPoint" />
          </mxGeometry>
        </mxCell>
        <mxCell id="07FEJgRhnAGQ607lGeJZ-40" value="" style="html=1;verticalAlign=bottom;endArrow=open;dashed=1;endSize=8;edgeStyle=elbowEdgeStyle;elbow=vertical;curved=0;rounded=0;" edge="1" parent="1">
          <mxGeometry relative="1" as="geometry">
            <mxPoint x="770" y="840" as="sourcePoint" />
            <mxPoint x="580" y="840" as="targetPoint" />
            <Array as="points" />
          </mxGeometry>
        </mxCell>
        <mxCell id="07FEJgRhnAGQ607lGeJZ-41" value="Input Category, Questions, Answers" style="html=1;verticalAlign=bottom;endArrow=block;edgeStyle=elbowEdgeStyle;elbow=horizontal;curved=0;rounded=0;" edge="1" parent="1">
          <mxGeometry width="80" relative="1" as="geometry">
            <mxPoint x="360" y="880" as="sourcePoint" />
            <mxPoint x="565" y="880" as="targetPoint" />
          </mxGeometry>
        </mxCell>
        <mxCell id="07FEJgRhnAGQ607lGeJZ-42" value="createQuestion()" style="html=1;verticalAlign=bottom;endArrow=block;edgeStyle=elbowEdgeStyle;elbow=horizontal;curved=0;rounded=0;" edge="1" parent="1">
          <mxGeometry width="80" relative="1" as="geometry">
            <mxPoint x="580" y="880" as="sourcePoint" />
            <mxPoint x="770" y="880" as="targetPoint" />
          </mxGeometry>
        </mxCell>
        <mxCell id="07FEJgRhnAGQ607lGeJZ-43" value="createQuestion()" style="html=1;verticalAlign=bottom;endArrow=block;edgeStyle=elbowEdgeStyle;elbow=horizontal;curved=0;rounded=0;" edge="1" parent="1">
          <mxGeometry width="80" relative="1" as="geometry">
            <mxPoint x="782" y="900" as="sourcePoint" />
            <mxPoint x="1010" y="900" as="targetPoint" />
          </mxGeometry>
        </mxCell>
        <mxCell id="07FEJgRhnAGQ607lGeJZ-44" value="" style="html=1;verticalAlign=bottom;endArrow=open;dashed=1;endSize=8;edgeStyle=elbowEdgeStyle;elbow=vertical;curved=0;rounded=0;" edge="1" parent="1">
          <mxGeometry relative="1" as="geometry">
            <mxPoint x="1000" y="920" as="sourcePoint" />
            <mxPoint x="780" y="920" as="targetPoint" />
            <Array as="points" />
          </mxGeometry>
        </mxCell>
        <mxCell id="07FEJgRhnAGQ607lGeJZ-45" value="" style="html=1;verticalAlign=bottom;endArrow=open;dashed=1;endSize=8;edgeStyle=elbowEdgeStyle;elbow=vertical;curved=0;rounded=0;" edge="1" parent="1">
          <mxGeometry relative="1" as="geometry">
            <mxPoint x="780" y="920" as="sourcePoint" />
            <mxPoint x="570" y="920" as="targetPoint" />
            <Array as="points" />
          </mxGeometry>
        </mxCell>
        <mxCell id="07FEJgRhnAGQ607lGeJZ-46" value="Save Button Pressed" style="html=1;verticalAlign=bottom;endArrow=block;edgeStyle=elbowEdgeStyle;elbow=vertical;curved=0;rounded=0;" edge="1" parent="1">
          <mxGeometry width="80" relative="1" as="geometry">
            <mxPoint x="360" y="1080" as="sourcePoint" />
            <mxPoint x="565" y="1080" as="targetPoint" />
          </mxGeometry>
        </mxCell>
        <mxCell id="07FEJgRhnAGQ607lGeJZ-47" value="Can Loop Here If Multiple Questions Created" style="rounded=0;whiteSpace=wrap;html=1;" vertex="1" parent="1">
          <mxGeometry x="400" y="990" width="140" height="50" as="geometry" />
        </mxCell>
        <mxCell id="07FEJgRhnAGQ607lGeJZ-48" value="&lt;u&gt;Database&lt;/u&gt;" style="rounded=1;whiteSpace=wrap;html=1;" vertex="1" parent="1">
          <mxGeometry x="2500" y="230" width="160" height="60" as="geometry" />
        </mxCell>
        <mxCell id="07FEJgRhnAGQ607lGeJZ-49" value="" style="endArrow=none;dashed=1;html=1;rounded=0;movable=1;resizable=1;rotatable=1;deletable=1;editable=1;locked=0;connectable=1;exitX=0.28;exitY=0.967;exitDx=0;exitDy=0;exitPerimeter=0;entryX=0.5;entryY=1;entryDx=0;entryDy=0;" edge="1" parent="1" target="07FEJgRhnAGQ607lGeJZ-48">
          <mxGeometry width="50" height="50" relative="1" as="geometry">
            <mxPoint x="2579.47" y="1400" as="sourcePoint" />
            <mxPoint x="2580" y="650" as="targetPoint" />
            <Array as="points">
              <mxPoint x="2579.47" y="1380" />
              <mxPoint x="2579.47" y="1370" />
            </Array>
          </mxGeometry>
        </mxCell>
        <mxCell id="07FEJgRhnAGQ607lGeJZ-50" value="" style="html=1;verticalAlign=bottom;endArrow=block;edgeStyle=elbowEdgeStyle;elbow=vertical;curved=0;rounded=0;" edge="1" parent="1">
          <mxGeometry width="80" relative="1" as="geometry">
            <mxPoint x="2350" y="590" as="sourcePoint" />
            <mxPoint x="2580" y="590" as="targetPoint" />
          </mxGeometry>
        </mxCell>
        <mxCell id="07FEJgRhnAGQ607lGeJZ-51" value="" style="html=1;verticalAlign=bottom;endArrow=open;dashed=1;endSize=8;edgeStyle=elbowEdgeStyle;elbow=vertical;curved=0;rounded=0;" edge="1" parent="1">
          <mxGeometry relative="1" as="geometry">
            <mxPoint x="2580" y="630" as="sourcePoint" />
            <mxPoint x="2350" y="630" as="targetPoint" />
            <Array as="points" />
          </mxGeometry>
        </mxCell>
        <mxCell id="07FEJgRhnAGQ607lGeJZ-53" value="new JSONObject()" style="html=1;verticalAlign=bottom;endArrow=block;edgeStyle=elbowEdgeStyle;elbow=horizontal;curved=0;rounded=0;" edge="1" parent="1">
          <mxGeometry width="80" relative="1" as="geometry">
            <mxPoint x="1220" y="1110" as="sourcePoint" />
            <mxPoint x="1430" y="1110" as="targetPoint" />
          </mxGeometry>
        </mxCell>
        <mxCell id="07FEJgRhnAGQ607lGeJZ-54" value="" style="html=1;verticalAlign=bottom;endArrow=open;dashed=1;endSize=8;edgeStyle=elbowEdgeStyle;elbow=vertical;curved=0;rounded=0;" edge="1" parent="1">
          <mxGeometry relative="1" as="geometry">
            <mxPoint x="1430" y="1130" as="sourcePoint" />
            <mxPoint x="1220" y="1130" as="targetPoint" />
            <Array as="points" />
          </mxGeometry>
        </mxCell>
        <mxCell id="07FEJgRhnAGQ607lGeJZ-55" value="sendRequest(apiURL, jsonPayload)" style="html=1;verticalAlign=bottom;endArrow=block;edgeStyle=elbowEdgeStyle;elbow=horizontal;curved=0;rounded=0;" edge="1" parent="1">
          <mxGeometry width="80" relative="1" as="geometry">
            <mxPoint x="1220" y="1170" as="sourcePoint" />
            <mxPoint x="1640" y="1170" as="targetPoint" />
          </mxGeometry>
        </mxCell>
        <mxCell id="07FEJgRhnAGQ607lGeJZ-56" value="" style="html=1;verticalAlign=bottom;endArrow=open;dashed=1;endSize=8;edgeStyle=elbowEdgeStyle;elbow=vertical;curved=0;rounded=0;" edge="1" parent="1">
          <mxGeometry relative="1" as="geometry">
            <mxPoint x="2120" y="1320" as="sourcePoint" />
            <mxPoint x="1890" y="1320" as="targetPoint" />
            <Array as="points" />
          </mxGeometry>
        </mxCell>
        <mxCell id="07FEJgRhnAGQ607lGeJZ-57" value="getBitsPleaseRequest()" style="html=1;verticalAlign=bottom;endArrow=block;edgeStyle=elbowEdgeStyle;elbow=horizontal;curved=0;rounded=0;" edge="1" parent="1">
          <mxGeometry width="80" relative="1" as="geometry">
            <mxPoint x="1650" y="1210" as="sourcePoint" />
            <mxPoint x="1880" y="1210" as="targetPoint" />
          </mxGeometry>
        </mxCell>
        <mxCell id="07FEJgRhnAGQ607lGeJZ-58" value="" style="html=1;verticalAlign=bottom;endArrow=open;dashed=1;endSize=8;edgeStyle=elbowEdgeStyle;elbow=vertical;curved=0;rounded=0;" edge="1" parent="1">
          <mxGeometry relative="1" as="geometry">
            <mxPoint x="1430" y="1320" as="sourcePoint" />
            <mxPoint x="1220" y="1320" as="targetPoint" />
            <Array as="points" />
          </mxGeometry>
        </mxCell>
        <mxCell id="07FEJgRhnAGQ607lGeJZ-59" value="sendRequest()" style="html=1;verticalAlign=bottom;endArrow=block;edgeStyle=elbowEdgeStyle;elbow=horizontal;curved=0;rounded=0;" edge="1" parent="1">
          <mxGeometry width="80" relative="1" as="geometry">
            <mxPoint x="1890" y="1230" as="sourcePoint" />
            <mxPoint x="2120" y="1230" as="targetPoint" />
          </mxGeometry>
        </mxCell>
        <mxCell id="07FEJgRhnAGQ607lGeJZ-60" value="execute()" style="html=1;verticalAlign=bottom;endArrow=block;edgeStyle=elbowEdgeStyle;elbow=vertical;curved=0;rounded=0;" edge="1" parent="1">
          <mxGeometry width="80" relative="1" as="geometry">
            <mxPoint x="2130" y="1260" as="sourcePoint" />
            <mxPoint x="2350" y="1260" as="targetPoint" />
          </mxGeometry>
        </mxCell>
        <mxCell id="07FEJgRhnAGQ607lGeJZ-61" value="" style="html=1;verticalAlign=bottom;endArrow=open;dashed=1;endSize=8;edgeStyle=elbowEdgeStyle;elbow=vertical;curved=0;rounded=0;" edge="1" parent="1">
          <mxGeometry relative="1" as="geometry">
            <mxPoint x="2350" y="1320" as="sourcePoint" />
            <mxPoint x="2130" y="1320" as="targetPoint" />
            <Array as="points" />
          </mxGeometry>
        </mxCell>
        <mxCell id="07FEJgRhnAGQ607lGeJZ-62" value="" style="html=1;verticalAlign=bottom;endArrow=open;dashed=1;endSize=8;edgeStyle=elbowEdgeStyle;elbow=vertical;curved=0;rounded=0;" edge="1" parent="1">
          <mxGeometry relative="1" as="geometry">
            <mxPoint x="1880" y="1320" as="sourcePoint" />
            <mxPoint x="1650" y="1320" as="targetPoint" />
            <Array as="points" />
          </mxGeometry>
        </mxCell>
        <mxCell id="07FEJgRhnAGQ607lGeJZ-63" value="" style="html=1;verticalAlign=bottom;endArrow=open;dashed=1;endSize=8;edgeStyle=elbowEdgeStyle;elbow=vertical;curved=0;rounded=0;" edge="1" parent="1">
          <mxGeometry relative="1" as="geometry">
            <mxPoint x="1640" y="1320" as="sourcePoint" />
            <mxPoint x="1430" y="1320" as="targetPoint" />
            <Array as="points" />
          </mxGeometry>
        </mxCell>
        <mxCell id="07FEJgRhnAGQ607lGeJZ-64" value="" style="html=1;verticalAlign=bottom;endArrow=block;edgeStyle=elbowEdgeStyle;elbow=vertical;curved=0;rounded=0;" edge="1" parent="1">
          <mxGeometry width="80" relative="1" as="geometry">
            <mxPoint x="2349.5" y="1280" as="sourcePoint" />
            <mxPoint x="2579.5" y="1280" as="targetPoint" />
          </mxGeometry>
        </mxCell>
        <mxCell id="07FEJgRhnAGQ607lGeJZ-65" value="" style="html=1;verticalAlign=bottom;endArrow=open;dashed=1;endSize=8;edgeStyle=elbowEdgeStyle;elbow=vertical;curved=0;rounded=0;" edge="1" parent="1">
          <mxGeometry relative="1" as="geometry">
            <mxPoint x="2579.5" y="1320" as="sourcePoint" />
            <mxPoint x="2349.5" y="1320" as="targetPoint" />
            <Array as="points" />
          </mxGeometry>
        </mxCell>
        <mxCell id="07FEJgRhnAGQ607lGeJZ-66" value="Question List" style="html=1;verticalAlign=bottom;endArrow=block;edgeStyle=elbowEdgeStyle;elbow=horizontal;curved=0;rounded=0;" edge="1" parent="1">
          <mxGeometry width="80" relative="1" as="geometry">
            <mxPoint x="570" y="1090" as="sourcePoint" />
            <mxPoint x="1220" y="1090" as="targetPoint" />
          </mxGeometry>
        </mxCell>
        <mxCell id="07FEJgRhnAGQ607lGeJZ-67" value="" style="html=1;verticalAlign=bottom;endArrow=open;dashed=1;endSize=8;edgeStyle=elbowEdgeStyle;elbow=vertical;curved=0;rounded=0;" edge="1" parent="1">
          <mxGeometry relative="1" as="geometry">
            <mxPoint x="1220" y="1320" as="sourcePoint" />
            <mxPoint x="570" y="1320" as="targetPoint" />
            <Array as="points" />
          </mxGeometry>
        </mxCell>
      </root>
    </mxGraphModel>
  </diagram>
</mxfile>
